<?xml version="1.0" encoding="UTF-8" standalone="no"?>
<!-- Created with Inkscape (http://www.inkscape.org/) -->

<svg
   xmlns:dc="http://purl.org/dc/elements/1.1/"
   xmlns:cc="http://creativecommons.org/ns#"
   xmlns:rdf="http://www.w3.org/1999/02/22-rdf-syntax-ns#"
   xmlns:svg="http://www.w3.org/2000/svg"
   xmlns="http://www.w3.org/2000/svg"
   xmlns:sodipodi="http://sodipodi.sourceforge.net/DTD/sodipodi-0.dtd"
   xmlns:inkscape="http://www.inkscape.org/namespaces/inkscape"
   width="91.511978mm"
   height="83.854103mm"
   viewBox="0 0 324.25505 297.12083"
   id="svg2"
   version="1.1"
   inkscape:version="0.91 r13725"
   sodipodi:docname="momlogo.svg">
  <defs
     id="defs4" />
  <sodipodi:namedview
     id="base"
     pagecolor="#ffffff"
     bordercolor="#666666"
     borderopacity="1.0"
     inkscape:pageopacity="0.0"
     inkscape:pageshadow="2"
     inkscape:zoom="0.35"
     inkscape:cx="-338.58677"
     inkscape:cy="-17.153793"
     inkscape:document-units="px"
     inkscape:current-layer="g3388"
     showgrid="false"
     fit-margin-top="0"
     fit-margin-left="0"
     fit-margin-right="0"
     fit-margin-bottom="0"
     inkscape:window-width="1536"
     inkscape:window-height="801"
     inkscape:window-x="-8"
     inkscape:window-y="-8"
     inkscape:window-maximized="1" />
  <metadata
     id="metadata7">
    <rdf:RDF>
      <cc:Work
         rdf:about="">
        <dc:format>image/svg+xml</dc:format>
        <dc:type
           rdf:resource="http://purl.org/dc/dcmitype/StillImage" />
        <dc:title></dc:title>
      </cc:Work>
    </rdf:RDF>
  </metadata>
  <g
     inkscape:label="Layer 1"
     inkscape:groupmode="layer"
     id="layer1"
     transform="translate(-226.44392,-220.94469)">
    <g
       id="g3388"
       transform="translate(-2345.2897,-911.43287)">
      <g
         id="g3342"
         transform="matrix(0.17970872,-0.01023607,0.01023607,0.17970872,2570.3905,1368.5405)"
         style="opacity:1;fill:none;fill-rule:nonzero;stroke:none;stroke-width:1;stroke-linecap:butt;stroke-linejoin:miter;stroke-miterlimit:10;stroke-dasharray:none">
  <path
   id="path3344"
   transform="matrix(0.125,0,0,-0.125,0,334)"
   style="opacity:1;fill:#999998;fill-rule:nonzero;stroke:none;stroke-width:1;stroke-linecap:butt;stroke-linejoin:miter;stroke-miterlimit:10;stroke-dasharray:none"
   d="m 3680,2600 470,-630 c 30,-50 40,-140 10,-190 l -440,-740 c -30,-52 -90,-55 -130,0 l -460,630 c -40,50 -50,130 -10,190 l 430,740 c 30,50 90,50 130,0"
   inkscape:connector-curvature="0" />

  <path
   id="path3346"
   transform="matrix(0.125,0,0,-0.125,0,334)"
   style="opacity:1;fill:#ccccc0;fill-rule:nonzero;stroke:none;stroke-width:1;stroke-linecap:butt;stroke-linejoin:miter;stroke-miterlimit:10;stroke-dasharray:none"
   d="m 3830,870 780,-104 c 60,-9 140,29 170,84 l 440,740 c 30,50 10,100 -60,110 l -770,110 c -70,0 -140,-30 -180,-90 L 3780,985 c -40,-55 -10,-106 50,-115"
   inkscape:connector-curvature="0" />

  <path
   id="path3348"
   transform="matrix(0.125,0,0,-0.125,0,334)"
   style="opacity:1;fill:#666668;fill-rule:nonzero;stroke:none;stroke-width:1;stroke-linecap:butt;stroke-linejoin:miter;stroke-miterlimit:10;stroke-dasharray:none"
   d="m 3750,2600 460,-630 c 40,-50 120,-100 190,-110 l 770,-100 c 70,-10 90,20 50,70 l -470,630 c -40,50 -120,90 -180,100 l -770,110 c -70,10 -90,-20 -50,-70"
   inkscape:connector-curvature="0" />

  <path
   id="path3350"
   transform="matrix(0.125,0,0,-0.125,0,334)"
   style="opacity:1;fill:#666667;fill-rule:nonzero;stroke:none;stroke-width:1;stroke-linecap:butt;stroke-linejoin:miter;stroke-miterlimit:10;stroke-dasharray:none"
   d="m 131,1720 1139,-170 c 90,-20 180,-100 210,-190 L 1790,141 C 1810,50.1 1750,-12 1660,1.98 L 524,174 C 432,188 338,273 315,364 L 5.18,1580 C -17.9,1670 38.4,1730 131,1720"
   inkscape:connector-curvature="0" />

  <path
   id="path3352"
   transform="matrix(0.125,0,0,-0.125,0,334)"
   style="opacity:1;fill:#333335;fill-rule:nonzero;stroke:none;stroke-width:1;stroke-linecap:butt;stroke-linejoin:miter;stroke-miterlimit:10;stroke-dasharray:none"
   d="M 2080,78.3 3000,773 c 70,56 110,176 90,267 l -310,1210 c -20,100 -100,120 -180,70 l -910,-700 c -80,-50 -120,-170 -90,-260 L 1900,140 c 30,-90.7 110,-118.3 180,-61.7"
   inkscape:connector-curvature="0" />

  <path
   id="path3354"
   transform="matrix(0.125,0,0,-0.125,0,334)"
   style="opacity:1;fill:#000002;fill-rule:nonzero;stroke:none;stroke-width:1;stroke-linecap:butt;stroke-linejoin:miter;stroke-miterlimit:10;stroke-dasharray:none"
   d="m 209,1780 1131,-170 c 90,-10 230,20 300,80 l 920,690 c 70,60 60,120 -30,130 l -1140,160 c -90,20 -220,-20 -300,-80 L 177,1910 c -75,-50 -61,-110 32,-130"
   inkscape:connector-curvature="0" />

</g>
      <g
         id="g3356"
         transform="matrix(1.6273708,-0.79231585,0.73540919,1.5104878,2540.6805,1193.9405)"
         style="opacity:1;fill:none;fill-rule:nonzero;stroke:none;stroke-width:1;stroke-linecap:butt;stroke-linejoin:miter;stroke-miterlimit:10;stroke-dasharray:none">
  <path
   id="path3358"
   style="opacity:1;fill:#666667;fill-rule:nonzero;stroke:none;stroke-width:1;stroke-linecap:butt;stroke-linejoin:miter;stroke-miterlimit:10;stroke-dasharray:none"
   d="M 85.1,23.5 C 85.4,15 82.8,6.7 77.7,0 c 2.8,6 4.6,12 4.6,18.4 0.5,12.4 -4.1,23 -9.2,33.6 1.4,-9.7 5.1,-18.4 6.4,-27.6 0.5,-6 0,-12.4 -4.6,-17 -2.8,-4.1 -8.7,-5.1 -13.3,-6 4.6,1.8 9.7,4.1 12.4,8.3 2.3,4 3.3,8.7 2.8,13.3 -3.5,-5.7 -9.1,-9.8 -15.6,-11.5 l 7.8,6.9 c 3,4 4.6,8.8 4.6,13.8 0,9.2 -4.1,17.5 -4.6,26.7 0,3.2 -1.4,6.4 -0.9,10.1 0,2.3 0.9,4.6 1.4,6 0,-2.8 0,-5.5 0.9,-8.3 l 3.2,6.9 C 72.2,69.9 69.5,65.3 72.2,61.2 77.7,49.2 84.2,36.8 85.1,23 l 0,0.5 z m -9.2,55.6 c -3.2,-0.8 -6.5,-0.8 -9.7,0 5.1,0.5 11,0.9 14.3,5.5 6.9,7.4 7.8,18.9 7.8,29 -0.2,9.5 -2.2,18.9 -6,27.6 l 7.4,-11.5 c 1.6,-6 2.4,-12.2 2.3,-18.4 -0.2,-8 -2.1,-15.8 -5.5,-23 -2.2,-4.4 -6,-7.7 -10.6,-9.2 z m -56.6,17 c -3.7,-0.5 -8.3,0 -11.5,3.2 -5.1,4.6 -6.9,12 -7.8,18.4 2.8,-5.5 5.1,-12.4 10.6,-17 2.3,-2.8 6,-3.7 9.2,-5.1 l -0.5,0.5 z M 67.6,81.8 c -6.4,2.3 -7.8,9.7 -7.8,16.1 0.9,-2.8 1.4,-6 2.8,-8.7 l 5,-7.4 z M 28,85.1 c -1.8,-5.5 -2.8,-11.5 -4.1,-17 -0.9,9.2 2.3,17.5 4.6,26.2 0.9,4.6 1.4,9.2 0,13.8 1.4,-2.3 2.8,-4.6 2.8,-6.9 C 32.2,95.6 29.9,90.1 28,85.1 Z M 43.2,67.6 c -2.9,-0.7 -5.7,-1.8 -8.3,-3.2 1.6,2.9 5.2,4.1 8.3,2.8 l 0,0.4 z m -2.7,-5.5 -9.2,-3.7 c 2.5,2.2 5.3,4 8.3,5.5 3.7,0.7 7.6,0.2 11,-1.4 L 40.5,62.1 Z M 69,53.8 63,60.7 c -4.6,5.4 -10.2,9.8 -16.6,12.9 -2.9,1.4 -6.1,1.7 -9.2,0.9 -3.2,-1.4 -5.1,-4.6 -8.3,-6.9 1.4,4.6 4.6,9.2 9.2,10.1 6.4,0.9 11.5,-2.3 16.1,-5.1 l 2.3,7.4 c 0,-3.2 -0.5,-6.4 1.4,-9.2 2.8,-5.5 9.2,-10.1 11,-16.6 l 0,-0.4 z m -21.2,1.4 c -3.2,0 -6.4,-0.5 -9.7,-1.8 0.9,1.8 1.4,3.7 3.7,4.6 2.3,-1 4.6,-2.4 6,-2.8 z M 69.4,38.6 c -5.5,3.2 -12.4,0.9 -17.9,3.7 4.6,1.4 10.1,2.8 15.2,0.9 1.4,-1.4 2.3,-2.7 2.7,-4.6 z M 40.5,40.5 C 36.8,35.4 29.9,34.5 25.8,30.4 l 0,4.6 c 4.5,3.2 9.1,4.5 14.7,5.5 z M 71.7,31.3 C 69,29 66.2,27.6 63.5,28 c -4.4,0.6 -8.3,3.1 -10.6,6.9 3.7,-0.5 6.4,-4.1 10.6,-4.6 2.8,-0.9 5.5,0 8.3,0.5 l 0,0.5 z M 48.7,9.2 c -6,6 -14.7,6.9 -21.2,10.6 l 0,2.8 4.6,-1.8 c 6,-2.3 13.8,-4.6 16.1,-11 l 0.5,-0.6 z m 5.6,-0.5 c -1.8,3.2 -3.7,6 -6.9,8.3 -4.6,3.2 -9.2,4.6 -14.7,5.5 -3.4,0.9 -6.5,2.4 -9.2,4.6 -1.8,1.4 -3.2,3.7 -4.6,5.5 l -0.5,1.8 c 2.3,-2.3 4.6,-6 8.3,-6.9 2.9,-1.3 6,-2 9.2,-1.8 1.8,2.3 3.2,5.5 5.5,7.4 -0.3,-3.1 -1.6,-6 -3.7,-8.3 3.6,-0.7 6.9,-2.3 9.7,-4.6 3.1,-3.1 5.5,-6.9 6.9,-11 l 0,-0.5 z"
   inkscape:connector-curvature="0" />

</g>
      <g
         id="g3360"
         transform="matrix(-0.17397996,0.04616245,-0.04616245,-0.17397996,2826.0705,1405.5405)"
         style="opacity:1;fill:none;fill-rule:nonzero;stroke:none;stroke-width:1;stroke-linecap:butt;stroke-linejoin:miter;stroke-miterlimit:10;stroke-dasharray:none">
  <path
   id="path3362"
   transform="matrix(0.125,0,0,-0.125,0,334)"
   style="opacity:1;fill:#ccccc1;fill-rule:nonzero;stroke:none;stroke-width:1;stroke-linecap:butt;stroke-linejoin:miter;stroke-miterlimit:10;stroke-dasharray:none"
   d="m 3680,2600 470,-630 c 30,-50 40,-140 10,-190 l -440,-740 c -30,-52 -90,-55 -130,0 l -460,630 c -40,50 -50,130 -10,190 l 430,740 c 30,50 90,50 130,0"
   inkscape:connector-curvature="0" />

  <path
   id="path3364"
   transform="matrix(0.125,0,0,-0.125,0,334)"
   style="opacity:1;fill:#999996;fill-rule:nonzero;stroke:none;stroke-width:1;stroke-linecap:butt;stroke-linejoin:miter;stroke-miterlimit:10;stroke-dasharray:none"
   d="m 3830,870 780,-104 c 60,-9 140,29 170,84 l 440,740 c 30,50 10,100 -60,110 l -770,110 c -70,0 -140,-30 -180,-90 L 3780,985 c -40,-55 -10,-106 50,-115"
   inkscape:connector-curvature="0" />

  <path
   id="path3366"
   transform="matrix(0.125,0,0,-0.125,0,334)"
   style="opacity:1;fill:#666665;fill-rule:nonzero;stroke:none;stroke-width:1;stroke-linecap:butt;stroke-linejoin:miter;stroke-miterlimit:10;stroke-dasharray:none"
   d="m 3750,2600 460,-630 c 40,-50 120,-100 190,-110 l 770,-100 c 70,-10 90,20 50,70 l -470,630 c -40,50 -120,90 -180,100 l -770,110 c -70,10 -90,-20 -50,-70"
   inkscape:connector-curvature="0" />

  <path
   id="path3368"
   transform="matrix(0.125,0,0,-0.125,0,334)"
   style="opacity:1;fill:#666667;fill-rule:nonzero;stroke:none;stroke-width:1;stroke-linecap:butt;stroke-linejoin:miter;stroke-miterlimit:10;stroke-dasharray:none"
   d="m 131,1720 1139,-170 c 90,-20 180,-100 210,-190 L 1790,141 C 1810,50.1 1750,-12 1660,1.98 L 524,174 C 432,188 338,273 315,364 L 5.18,1580 C -17.9,1670 38.4,1730 131,1720"
   inkscape:connector-curvature="0" />

  <path
   id="path3370"
   transform="matrix(0.125,0,0,-0.125,0,334)"
   style="opacity:1;fill:#ccccc1;fill-rule:nonzero;stroke:none;stroke-width:1;stroke-linecap:butt;stroke-linejoin:miter;stroke-miterlimit:10;stroke-dasharray:none"
   d="M 2080,78.3 3000,773 c 70,56 110,176 90,267 l -310,1210 c -20,100 -100,120 -180,70 l -910,-700 c -80,-50 -120,-170 -90,-260 L 1900,140 c 30,-90.7 110,-118.3 180,-61.7"
   inkscape:connector-curvature="0" />

  <path
   id="path3372"
   transform="matrix(0.125,0,0,-0.125,0,334)"
   style="opacity:1;fill:#999997;fill-rule:nonzero;stroke:none;stroke-width:1;stroke-linecap:butt;stroke-linejoin:miter;stroke-miterlimit:10;stroke-dasharray:none"
   d="m 209,1780 1131,-170 c 90,-10 230,20 300,80 l 920,690 c 70,60 60,120 -30,130 l -1140,160 c -90,20 -220,-20 -300,-80 L 177,1910 c -75,-50 -61,-110 32,-130"
   inkscape:connector-curvature="0" />

</g>
      <g
         id="g3374"
         transform="matrix(3.51,0,0,3.51,2771.6129,1331.8629)">
   <text
   id="text3376"
   style="font-weight:normal;font-size:40px;font-family:GoodDog;opacity:1;fill:#000000;fill-rule:nonzero;stroke:none;stroke-width:1;stroke-linecap:butt;stroke-linejoin:miter;stroke-miterlimit:10;stroke-dasharray:none"
   font-weight="normal"
   font-size="40">
  <tspan
     id="tspan3378"
     style="opacity:1;fill:#000000;stroke:none;stroke-width:0;stroke-linecap:butt;stroke-linejoin:miter;stroke-miterlimit:4;stroke-dasharray:none"
     y="8.9799995"
     x="-29.700001">M</tspan>
  <tspan
     id="tspan3380"
     style="opacity:1;fill:#000000;stroke:none;stroke-width:0;stroke-linecap:butt;stroke-linejoin:miter;stroke-miterlimit:4;stroke-dasharray:none"
     y="8.9799995"
     x="-5.6300001">o</tspan>
  <tspan
     id="tspan3382"
     style="opacity:1;fill:#000000;stroke:none;stroke-width:0;stroke-linecap:butt;stroke-linejoin:miter;stroke-miterlimit:4;stroke-dasharray:none"
     y="8.9799995"
     x="5.6300001">M</tspan>
</text>

 </g>
    </g>
  </g>
</svg>
